<svg xmlns="http://www.w3.org/2000/svg" role="img" viewBox="0 0 24 24" width="96px" height="96px">
<linearGradient id="primary-main-gradient">
    <stop stop-color="#0ea5e9" offset="0%"></stop>
    <stop stop-color="#22c55e" offset="100%"></stop>
</linearGradient>
<path fill="url(#primary-main-gradient)" d="M17.6953 7.2433c-2.1016-2.5224-4.6763-3.0481-7.7242-1.5771 2.0494-.1049 3.4417.6047 4.1772 2.1285.4199.8695.3263 1.8182.2225 2.87C14.2026 12.3767 14.0072 14.3572 15.9604 16.7015c2.1016 2.5224 4.6763 3.0481 7.7242 1.5771-2.0494.1049-3.4417-.6047-4.1772-2.1285-.4199-.8695-.3263-1.8182-.2225-2.87C19.4535 11.5688 19.6491 9.5884 17.6953 7.2433zM8.0793 7.2424c-2.1016-2.5224-4.6763-3.0481-7.7242-1.5771 2.0494-.1049 3.4417.6047 4.1772 2.1285.4199.8695.3263 1.8182.2225 2.87-.1682 1.7119-.3637 3.6924 1.5894 6.0368 2.1016 2.5224 4.6763 3.0481 7.7242 1.5771-2.0494.1049-3.4417-.6047-4.1772-2.1285-.4199-.8695-.3263-1.8182-.2225-2.87C9.8376 11.5679 10.0332 9.5874 8.0793 7.2424z"></path>
</svg>
